<mxfile host="app.diagrams.net" modified="2024-04-04T11:57:31.723Z" agent="Mozilla/5.0 (Windows NT 10.0; Win64; x64) AppleWebKit/537.36 (KHTML, like Gecko) Chrome/123.0.0.0 Safari/537.36" etag="YaRCrysdxAf0mIsocUn5" version="24.2.1" type="google">
  <diagram name="Page-1" id="Pw7Y8vt14J1WnUf-_r4i">
    <mxGraphModel grid="1" page="1" gridSize="10" guides="1" tooltips="1" connect="1" arrows="1" fold="1" pageScale="1" pageWidth="827" pageHeight="1169" math="0" shadow="0">
      <root>
        <mxCell id="0" />
        <mxCell id="1" parent="0" />
        <mxCell id="bbOxZ139YF60yE0xwEIC-1" value="Validation de la commande" style="ellipse;whiteSpace=wrap;html=1;" vertex="1" parent="1">
          <mxGeometry x="309" y="70" width="210" height="110" as="geometry" />
        </mxCell>
        <mxCell id="bbOxZ139YF60yE0xwEIC-3" value="&lt;div&gt;Récupération des données la commande (adresse et plats)&lt;/div&gt;" style="ellipse;whiteSpace=wrap;html=1;" vertex="1" parent="1">
          <mxGeometry x="309" y="250" width="210" height="110" as="geometry" />
        </mxCell>
        <mxCell id="bbOxZ139YF60yE0xwEIC-4" value="Recherche du livreur disponible le plus proche avec les plats demandés" style="ellipse;whiteSpace=wrap;html=1;" vertex="1" parent="1">
          <mxGeometry x="309" y="430" width="210" height="110" as="geometry" />
        </mxCell>
        <mxCell id="bbOxZ139YF60yE0xwEIC-6" value="Notification de la prochaine livraison" style="ellipse;whiteSpace=wrap;html=1;" vertex="1" parent="1">
          <mxGeometry x="309" y="610" width="210" height="110" as="geometry" />
        </mxCell>
        <mxCell id="bbOxZ139YF60yE0xwEIC-7" value="Heure de livraison" style="ellipse;whiteSpace=wrap;html=1;" vertex="1" parent="1">
          <mxGeometry x="309" y="790" width="210" height="110" as="geometry" />
        </mxCell>
        <mxCell id="bbOxZ139YF60yE0xwEIC-8" value="Itinéraire" style="ellipse;whiteSpace=wrap;html=1;" vertex="1" parent="1">
          <mxGeometry x="309" y="970" width="210" height="110" as="geometry" />
        </mxCell>
        <mxCell id="bbOxZ139YF60yE0xwEIC-9" value="Client" style="shape=umlActor;verticalLabelPosition=bottom;verticalAlign=top;html=1;outlineConnect=0;" vertex="1" parent="1">
          <mxGeometry x="60" y="490" width="30" height="60" as="geometry" />
        </mxCell>
        <mxCell id="bbOxZ139YF60yE0xwEIC-10" value="Livreur" style="shape=umlActor;verticalLabelPosition=bottom;verticalAlign=top;html=1;outlineConnect=0;" vertex="1" parent="1">
          <mxGeometry x="90" y="970" width="30" height="60" as="geometry" />
        </mxCell>
        <mxCell id="bbOxZ139YF60yE0xwEIC-15" value="" style="endArrow=classic;html=1;rounded=0;" edge="1" parent="1" source="bbOxZ139YF60yE0xwEIC-1" target="bbOxZ139YF60yE0xwEIC-9">
          <mxGeometry width="50" height="50" relative="1" as="geometry">
            <mxPoint x="260" y="360" as="sourcePoint" />
            <mxPoint x="310" y="310" as="targetPoint" />
          </mxGeometry>
        </mxCell>
        <mxCell id="bbOxZ139YF60yE0xwEIC-16" value="" style="endArrow=classic;html=1;rounded=0;exitX=0.5;exitY=1;exitDx=0;exitDy=0;entryX=0.5;entryY=0;entryDx=0;entryDy=0;" edge="1" parent="1" source="bbOxZ139YF60yE0xwEIC-1" target="bbOxZ139YF60yE0xwEIC-3">
          <mxGeometry width="50" height="50" relative="1" as="geometry">
            <mxPoint x="319" y="135" as="sourcePoint" />
            <mxPoint x="110" y="485" as="targetPoint" />
          </mxGeometry>
        </mxCell>
        <mxCell id="bbOxZ139YF60yE0xwEIC-17" value="" style="endArrow=classic;html=1;rounded=0;exitX=0.5;exitY=1;exitDx=0;exitDy=0;entryX=0.5;entryY=0;entryDx=0;entryDy=0;" edge="1" parent="1">
          <mxGeometry width="50" height="50" relative="1" as="geometry">
            <mxPoint x="413" y="360" as="sourcePoint" />
            <mxPoint x="413" y="430" as="targetPoint" />
          </mxGeometry>
        </mxCell>
        <mxCell id="bbOxZ139YF60yE0xwEIC-18" value="" style="endArrow=classic;html=1;rounded=0;exitX=0.5;exitY=1;exitDx=0;exitDy=0;entryX=0.5;entryY=0;entryDx=0;entryDy=0;" edge="1" parent="1">
          <mxGeometry width="50" height="50" relative="1" as="geometry">
            <mxPoint x="414" y="720" as="sourcePoint" />
            <mxPoint x="414" y="790" as="targetPoint" />
          </mxGeometry>
        </mxCell>
        <mxCell id="bbOxZ139YF60yE0xwEIC-19" value="" style="endArrow=classic;html=1;rounded=0;exitX=0.5;exitY=1;exitDx=0;exitDy=0;entryX=0.5;entryY=0;entryDx=0;entryDy=0;" edge="1" parent="1">
          <mxGeometry width="50" height="50" relative="1" as="geometry">
            <mxPoint x="414" y="540" as="sourcePoint" />
            <mxPoint x="414" y="610" as="targetPoint" />
          </mxGeometry>
        </mxCell>
        <mxCell id="bbOxZ139YF60yE0xwEIC-20" value="" style="endArrow=classic;html=1;rounded=0;exitX=0.5;exitY=1;exitDx=0;exitDy=0;entryX=0.5;entryY=0;entryDx=0;entryDy=0;" edge="1" parent="1">
          <mxGeometry width="50" height="50" relative="1" as="geometry">
            <mxPoint x="414" y="900" as="sourcePoint" />
            <mxPoint x="414" y="970" as="targetPoint" />
          </mxGeometry>
        </mxCell>
        <mxCell id="bbOxZ139YF60yE0xwEIC-28" value="Livraison" style="ellipse;whiteSpace=wrap;html=1;" vertex="1" parent="1">
          <mxGeometry x="309" y="1150" width="210" height="110" as="geometry" />
        </mxCell>
        <mxCell id="bbOxZ139YF60yE0xwEIC-29" value="" style="endArrow=classic;html=1;rounded=0;exitX=0.5;exitY=1;exitDx=0;exitDy=0;entryX=0.5;entryY=0;entryDx=0;entryDy=0;" edge="1" parent="1">
          <mxGeometry width="50" height="50" relative="1" as="geometry">
            <mxPoint x="414" y="1080" as="sourcePoint" />
            <mxPoint x="414" y="1150" as="targetPoint" />
          </mxGeometry>
        </mxCell>
        <mxCell id="Pg6Uyl91KdahzHNtImbs-1" value="" style="endArrow=classic;html=1;rounded=0;" edge="1" parent="1" source="bbOxZ139YF60yE0xwEIC-7" target="bbOxZ139YF60yE0xwEIC-9">
          <mxGeometry width="50" height="50" relative="1" as="geometry">
            <mxPoint x="189" y="1003.95" as="sourcePoint" />
            <mxPoint x="-20" y="849.9991071428572" as="targetPoint" />
          </mxGeometry>
        </mxCell>
        <mxCell id="Pg6Uyl91KdahzHNtImbs-2" value="" style="endArrow=classic;html=1;rounded=0;" edge="1" parent="1" source="bbOxZ139YF60yE0xwEIC-6" target="bbOxZ139YF60yE0xwEIC-10">
          <mxGeometry width="50" height="50" relative="1" as="geometry">
            <mxPoint x="390" y="610" as="sourcePoint" />
            <mxPoint x="440" y="560" as="targetPoint" />
          </mxGeometry>
        </mxCell>
        <mxCell id="Pg6Uyl91KdahzHNtImbs-3" value="" style="endArrow=classic;html=1;rounded=0;" edge="1" parent="1" source="bbOxZ139YF60yE0xwEIC-8" target="bbOxZ139YF60yE0xwEIC-9">
          <mxGeometry width="50" height="50" relative="1" as="geometry">
            <mxPoint x="190" y="930" as="sourcePoint" />
            <mxPoint x="240" y="880" as="targetPoint" />
          </mxGeometry>
        </mxCell>
        <mxCell id="Pg6Uyl91KdahzHNtImbs-4" value="" style="endArrow=classic;html=1;rounded=0;" edge="1" parent="1" source="bbOxZ139YF60yE0xwEIC-8" target="bbOxZ139YF60yE0xwEIC-10">
          <mxGeometry width="50" height="50" relative="1" as="geometry">
            <mxPoint x="90" y="1070" as="sourcePoint" />
            <mxPoint x="108" y="540" as="targetPoint" />
          </mxGeometry>
        </mxCell>
        <mxCell id="nbLqMJkSrCN_PCS7B_r3-1" value="ExpressFood" style="swimlane;whiteSpace=wrap;html=1;" vertex="1" parent="1">
          <mxGeometry x="280" y="30" width="280" height="1250" as="geometry" />
        </mxCell>
        <mxCell id="nbLqMJkSrCN_PCS7B_r3-3" value="" style="endArrow=classic;html=1;rounded=0;" edge="1" parent="1" source="bbOxZ139YF60yE0xwEIC-10" target="bbOxZ139YF60yE0xwEIC-28">
          <mxGeometry width="50" height="50" relative="1" as="geometry">
            <mxPoint x="390" y="1100" as="sourcePoint" />
            <mxPoint x="440" y="1050" as="targetPoint" />
          </mxGeometry>
        </mxCell>
        <mxCell id="nbLqMJkSrCN_PCS7B_r3-4" value="" style="endArrow=classic;html=1;rounded=0;" edge="1" parent="1" source="bbOxZ139YF60yE0xwEIC-28" target="bbOxZ139YF60yE0xwEIC-9">
          <mxGeometry width="50" height="50" relative="1" as="geometry">
            <mxPoint x="390" y="1100" as="sourcePoint" />
            <mxPoint x="440" y="1050" as="targetPoint" />
          </mxGeometry>
        </mxCell>
      </root>
    </mxGraphModel>
  </diagram>
</mxfile>
